<svg width="145" height="87" viewBox="0 0 145 87" fill="none" xmlns="http://www.w3.org/2000/svg">
<path d="M1.71094 48.9844H4.78125C5.23438 48.9844 5.70312 49 6.1875 49.0312C6.67188 49.0625 7.14453 49.1289 7.60547 49.2305C8.06641 49.332 8.50391 49.4844 8.91797 49.6875C9.33203 49.8828 9.69141 50.1484 9.99609 50.4844C10.3086 50.8203 10.5547 51.2383 10.7344 51.7383C10.9219 52.2305 11.0156 52.8242 11.0156 53.5195V54.4922C11.0156 55.0234 10.9375 55.5117 10.7812 55.957C10.6328 56.4023 10.4336 56.7969 10.1836 57.1406C9.93359 57.4766 9.64844 57.7578 9.32812 57.9844C9.00781 58.2031 8.67969 58.3516 8.34375 58.4297V58.5234C9.33594 58.7031 10.082 59.1758 10.582 59.9414C11.0898 60.6992 11.3438 61.6719 11.3438 62.8594V63.8789C11.3438 64.6055 11.2617 65.2383 11.0977 65.7773C10.9414 66.3086 10.7188 66.7656 10.4297 67.1484C10.1406 67.5234 9.79688 67.832 9.39844 68.0742C9 68.3164 8.5625 68.5078 8.08594 68.6484C7.60938 68.7812 7.10156 68.875 6.5625 68.9297C6.02344 68.9766 5.46875 69 4.89844 69H1.71094V48.9844ZM5.27344 57.5508C5.67969 57.5508 6.05078 57.5039 6.38672 57.4102C6.72266 57.3086 7.00781 57.1562 7.24219 56.9531C7.48438 56.7422 7.66797 56.4727 7.79297 56.1445C7.92578 55.8086 7.99219 55.4062 7.99219 54.9375V54.1172C7.99219 53.6484 7.94531 53.2344 7.85156 52.875C7.75781 52.5156 7.60156 52.2109 7.38281 51.9609C7.17188 51.7109 6.89062 51.5234 6.53906 51.3984C6.19531 51.2656 5.77344 51.1992 5.27344 51.1992H4.6875V57.5508H5.27344ZM5.55469 66.8906C5.96094 66.8906 6.32812 66.8398 6.65625 66.7383C6.99219 66.6289 7.27734 66.4648 7.51172 66.2461C7.75391 66.0195 7.9375 65.7344 8.0625 65.3906C8.19531 65.0469 8.26172 64.6406 8.26172 64.1719V62.6133C8.26172 62.1445 8.21484 61.7305 8.12109 61.3711C8.02734 61.0039 7.87109 60.6992 7.65234 60.457C7.44141 60.207 7.16406 60.0195 6.82031 59.8945C6.47656 59.7617 6.05469 59.6953 5.55469 59.6953H4.6875V66.8906H5.55469ZM16.1953 48.9844H19.6875L23.3906 69H20.3203L19.7695 65.4141H16.1133L15.5859 69H12.5039L16.1953 48.9844ZM19.418 63.1289L18.0117 53.1562H17.8828L16.4648 63.1289H19.418ZM25.3359 48.9844H28.6289C29.0039 48.9844 29.4141 49 29.8594 49.0312C30.3125 49.0625 30.7617 49.1406 31.207 49.2656C31.6602 49.3828 32.0938 49.5625 32.5078 49.8047C32.9297 50.0469 33.3008 50.3789 33.6211 50.8008C33.9492 51.2227 34.2109 51.7539 34.4062 52.3945C34.6016 53.0273 34.6992 53.7969 34.6992 54.7031V55.207C34.6992 56.7305 34.4805 57.9727 34.043 58.9336C33.6055 59.8867 32.9609 60.5742 32.1094 60.9961L35.3203 69H32.1094L29.4492 61.5117H28.3125V69H25.3359V48.9844ZM28.7695 59.3203C29.3008 59.3203 29.75 59.2617 30.1172 59.1445C30.4844 59.0273 30.7812 58.832 31.0078 58.5586C31.2344 58.2773 31.3984 57.9102 31.5 57.457C31.6016 56.9961 31.6523 56.4297 31.6523 55.7578V54.1758C31.6523 53.6602 31.6055 53.2148 31.5117 52.8398C31.418 52.4648 31.2578 52.1562 31.0312 51.9141C30.8125 51.6719 30.5195 51.4922 30.1523 51.375C29.7852 51.2578 29.3242 51.1992 28.7695 51.1992H28.3125V59.3203H28.7695ZM37.6172 48.9844H40.6875C41.1406 48.9844 41.6094 49 42.0938 49.0312C42.5781 49.0625 43.0508 49.1289 43.5117 49.2305C43.9727 49.332 44.4102 49.4844 44.8242 49.6875C45.2383 49.8828 45.5977 50.1484 45.9023 50.4844C46.2148 50.8203 46.4609 51.2383 46.6406 51.7383C46.8281 52.2305 46.9219 52.8242 46.9219 53.5195V54.4922C46.9219 55.0234 46.8438 55.5117 46.6875 55.957C46.5391 56.4023 46.3398 56.7969 46.0898 57.1406C45.8398 57.4766 45.5547 57.7578 45.2344 57.9844C44.9141 58.2031 44.5859 58.3516 44.25 58.4297V58.5234C45.2422 58.7031 45.9883 59.1758 46.4883 59.9414C46.9961 60.6992 47.25 61.6719 47.25 62.8594V63.8789C47.25 64.6055 47.168 65.2383 47.0039 65.7773C46.8477 66.3086 46.625 66.7656 46.3359 67.1484C46.0469 67.5234 45.7031 67.832 45.3047 68.0742C44.9062 68.3164 44.4688 68.5078 43.9922 68.6484C43.5156 68.7812 43.0078 68.875 42.4688 68.9297C41.9297 68.9766 41.375 69 40.8047 69H37.6172V48.9844ZM41.1797 57.5508C41.5859 57.5508 41.957 57.5039 42.293 57.4102C42.6289 57.3086 42.9141 57.1562 43.1484 56.9531C43.3906 56.7422 43.5742 56.4727 43.6992 56.1445C43.832 55.8086 43.8984 55.4062 43.8984 54.9375V54.1172C43.8984 53.6484 43.8516 53.2344 43.7578 52.875C43.6641 52.5156 43.5078 52.2109 43.2891 51.9609C43.0781 51.7109 42.7969 51.5234 42.4453 51.3984C42.1016 51.2656 41.6797 51.1992 41.1797 51.1992H40.5938V57.5508H41.1797ZM41.4609 66.8906C41.8672 66.8906 42.2344 66.8398 42.5625 66.7383C42.8984 66.6289 43.1836 66.4648 43.418 66.2461C43.6602 66.0195 43.8438 65.7344 43.9688 65.3906C44.1016 65.0469 44.168 64.6406 44.168 64.1719V62.6133C44.168 62.1445 44.1211 61.7305 44.0273 61.3711C43.9336 61.0039 43.7773 60.6992 43.5586 60.457C43.3477 60.207 43.0703 60.0195 42.7266 59.8945C42.3828 59.7617 41.9609 59.6953 41.4609 59.6953H40.5938V66.8906H41.4609ZM49.8984 48.9844H57.3164V51.375H52.9336V57.3633H56.3203V59.7539H52.9336V66.6094H57.4336V69H49.8984V48.9844ZM59.625 48.9844H62.918C63.293 48.9844 63.7031 49 64.1484 49.0312C64.6016 49.0625 65.0508 49.1406 65.4961 49.2656C65.9492 49.3828 66.3828 49.5625 66.7969 49.8047C67.2188 50.0469 67.5898 50.3789 67.9102 50.8008C68.2383 51.2227 68.5 51.7539 68.6953 52.3945C68.8906 53.0273 68.9883 53.7969 68.9883 54.7031V55.207C68.9883 56.7305 68.7695 57.9727 68.332 58.9336C67.8945 59.8867 67.25 60.5742 66.3984 60.9961L69.6094 69H66.3984L63.7383 61.5117H62.6016V69H59.625V48.9844ZM63.0586 59.3203C63.5898 59.3203 64.0391 59.2617 64.4062 59.1445C64.7734 59.0273 65.0703 58.832 65.2969 58.5586C65.5234 58.2773 65.6875 57.9102 65.7891 57.457C65.8906 56.9961 65.9414 56.4297 65.9414 55.7578V54.1758C65.9414 53.6602 65.8945 53.2148 65.8008 52.8398C65.707 52.4648 65.5469 52.1562 65.3203 51.9141C65.1016 51.6719 64.8086 51.4922 64.4414 51.375C64.0742 51.2578 63.6133 51.1992 63.0586 51.1992H62.6016V59.3203H63.0586ZM71.1328 64.9453C71.1328 64.5156 71.1562 64.1211 71.2031 63.7617C71.2578 63.3945 71.3359 63 71.4375 62.5781H73.793V63.5508C73.793 64.0898 73.8242 64.5664 73.8867 64.9805C73.957 65.3945 74.0664 65.7461 74.2148 66.0352C74.3711 66.3164 74.5742 66.5312 74.8242 66.6797C75.082 66.8203 75.3945 66.8906 75.7617 66.8906C76.3398 66.8906 76.7812 66.7344 77.0859 66.4219C77.3906 66.1016 77.543 65.6367 77.543 65.0273C77.543 64.7148 77.5195 64.4297 77.4727 64.1719C77.4336 63.9062 77.3594 63.6445 77.25 63.3867C77.1484 63.1289 77.0078 62.8594 76.8281 62.5781C76.6484 62.2891 76.418 61.9688 76.1367 61.6172L72.9727 57.8555C72.4102 57.1367 71.9766 56.4141 71.6719 55.6875C71.3672 54.9531 71.2148 54.1719 71.2148 53.3438C71.2148 52.6797 71.3164 52.0703 71.5195 51.5156C71.7305 50.9609 72.0312 50.4844 72.4219 50.0859C72.8125 49.6797 73.293 49.3672 73.8633 49.1484C74.4414 48.9219 75.0938 48.8086 75.8203 48.8086C76.7031 48.8086 77.4375 48.9336 78.0234 49.1836C78.6172 49.4336 79.0898 49.7617 79.4414 50.168C79.793 50.5742 80.0391 51.0312 80.1797 51.5391C80.3281 52.0391 80.4023 52.543 80.4023 53.0508C80.4023 53.4805 80.3672 53.8789 80.2969 54.2461C80.2344 54.6055 80.1602 55.0039 80.0742 55.4414H77.7305V54.4922C77.7305 53.4297 77.5781 52.6172 77.2734 52.0547C76.9688 51.4844 76.4727 51.1992 75.7852 51.1992C75.2148 51.1992 74.7891 51.3594 74.5078 51.6797C74.2266 51.9922 74.0859 52.4141 74.0859 52.9453C74.0859 53.2266 74.1055 53.4805 74.1445 53.707C74.1914 53.9336 74.2539 54.1445 74.332 54.3398C74.418 54.5273 74.5195 54.7109 74.6367 54.8906C74.7539 55.0703 74.8867 55.2578 75.0352 55.4531L78.5625 59.7188C79.2031 60.5547 79.6953 61.3594 80.0391 62.1328C80.3828 62.8984 80.5547 63.7109 80.5547 64.5703C80.5547 65.2812 80.4414 65.9219 80.2148 66.4922C79.9961 67.0625 79.6797 67.5469 79.2656 67.9453C78.8516 68.3438 78.3516 68.6523 77.7656 68.8711C77.1797 69.082 76.5195 69.1875 75.7852 69.1875C74.8789 69.1875 74.125 69.0664 73.5234 68.8242C72.9297 68.582 72.4531 68.2617 72.0938 67.8633C71.7422 67.4648 71.4922 67.0117 71.3438 66.5039C71.2031 65.9961 71.1328 65.4766 71.1328 64.9453Z" fill="black"/>
<path d="M145 28.3073C144.331 25.7307 143.662 23.1541 142.993 20.5773C143.559 21.1816 144.126 21.786 144.692 22.3901C144.32 19.9327 142.982 17.637 141.03 16.1108C141.606 16.3107 142.181 16.5106 142.757 16.7106C142.263 16.5391 141.441 15.1065 141.029 14.694C140.383 14.0467 139.685 13.4509 138.948 12.9108C137.472 11.8292 135.834 10.9718 134.107 10.3758C133.262 10.0843 131.714 9.42273 130.634 9.65027C130.063 9.55844 129.479 9.49443 128.874 9.48425C128.874 9.48425 128.825 9.36755 128.731 9.18005C127.583 4.26863 123.038 0.34424 118.024 0C119.005 0.925061 119.986 1.8499 120.966 2.77496C117.347 2.58316 113.728 2.39136 110.109 2.19979C111.577 2.38661 112.851 2.85729 113.307 4.13088C109.746 3.25128 105.931 4.00246 102.569 5.47464C104.034 5.8657 105.469 5.83467 106.933 6.2255C103.638 8.05572 100.343 9.88594 97.0485 11.7162C97.6265 11.6099 98.2045 11.5036 98.7826 11.3975C97.0287 14.4219 95.2748 17.4461 93.5209 20.4705C93.9699 19.9904 94.4517 19.5434 94.9584 19.1271C93.998 21.5209 93.5708 24.8697 93 32.2595L95.3917 53.903H96.9392C96.9392 53.903 94.5475 44.1422 97.0799 39.0496C99.6122 33.957 96.7985 27.5913 100.316 27.0256C103.833 26.4597 112.836 34.0986 126.623 26.3181C126.623 26.3181 134.924 29.9962 135.627 30.9864C136.331 31.9766 133.517 34.2399 135.909 37.0692C138.3 39.8984 140.942 40.8442 139.816 54L140.832 53.903C140.832 53.903 141.499 46.8205 142.061 39.4078C142.155 39.7245 142.243 40.0425 142.356 40.3546C142.457 40.6371 142.67 40.9752 142.96 40.9033C143.231 40.8359 143.284 40.4763 143.28 40.1949C143.253 38.3342 143.226 36.4734 143.199 34.6129C143.61 35.3948 144.022 36.1767 144.433 36.9588C144.212 33.8122 143.99 30.6659 143.769 27.5196C143.77 28.1013 144.476 28.5527 145 28.3073Z" fill="black" fill-opacity="0.81"/>
<path opacity="0.25" d="M117.595 5.08071C113.321 4.59837 108.87 6.30166 105.901 9.55571C108.636 7.86691 112.268 7.91306 114.963 9.67086C109.992 10.9683 104.805 12.383 101 15.9726C103.601 15.0962 106.218 14.2158 108.926 13.8295C111.633 13.4433 114.464 13.574 116.988 14.6677C113.087 14.9842 109.245 16.0826 105.732 17.8858C109.596 17.9527 113.46 18.0195 117.325 18.0864C114.022 20.4544 109.86 21.4754 105.895 20.8907C109.596 22.0526 113.554 22.3073 117.363 21.6287C119.141 21.3119 120.884 20.7958 122.67 20.5373C124.457 20.2788 126.329 20.2911 128 21.0012C125.901 19.3258 123.801 17.6504 121.702 15.975C123.694 16.2655 125.642 16.8844 127.451 17.802C125.852 14.1497 123.232 10.995 119.997 8.83019C122.844 10.2766 125.5 12.1346 127.865 14.3347C126.595 11.8955 124.901 9.69921 122.891 7.88609C123.752 8.57252 124.614 9.25896 125.476 9.9454C125.975 10.3433 127.096 11.6143 127.72 11.4716C125.835 7.86399 121.368 5.50645 117.595 5.08071Z" fill="#467082"/>
<path opacity="0.25" d="M137.162 17.1604C139.11 19.6533 140.093 22.9715 139.993 26.2366C139.662 22.9557 137.686 19.9252 134.943 18.4927C136.896 21.1128 138.27 24.2371 138.917 27.5318C138.355 25.5608 136.699 24.0088 134.819 23.6898C136.993 25.968 138.614 28.8596 139.48 32C136.205 29.2688 132.691 26.8745 129 24.8598C130.331 25.0992 131.662 25.3385 132.993 25.5779C131.914 24.2869 130.835 22.996 129.756 21.705C130.916 22.1083 132.077 22.5115 133.237 22.9148C132.55 21.299 131.353 19.9442 129.893 19.1304C131.432 19.4158 132.941 19.8952 134.379 20.5559C133.182 18.6982 131.422 17.2747 129.438 16.5605C130.849 15.6515 132.68 15.5583 134.163 16.3199C132.925 15.8533 131.694 14.8011 130.549 14.0985C130.247 13.9134 129.419 13.5346 129.969 13.0762C130.247 12.8445 131.151 13.2072 131.457 13.2908C133.667 13.894 135.69 15.2766 137.162 17.1604Z" fill="#467082"/>
<path d="M1.71094 18.9844H5.67188L7.59375 26.7305C7.79688 27.5898 7.95703 28.4102 8.07422 29.1914C8.19141 29.9648 8.30469 30.6953 8.41406 31.3828H8.50781C8.61719 30.6953 8.73047 29.9648 8.84766 29.1914C8.96484 28.4102 9.125 27.5898 9.32812 26.7305L11.3086 18.9844H15.1875V39H12.3516V32.3789C12.3516 31.3633 12.3594 30.3867 12.375 29.4492C12.3984 28.5117 12.4258 27.6523 12.457 26.8711C12.4883 26.082 12.5234 25.3867 12.5625 24.7852C12.6016 24.1836 12.6367 23.707 12.668 23.3555H12.4453L9.42188 36.4219H7.5L4.45312 23.3555H4.23047C4.26172 23.707 4.29688 24.1836 4.33594 24.7852C4.375 25.3867 4.41016 26.082 4.44141 26.8711C4.47266 27.6523 4.49609 28.5117 4.51172 29.4492C4.53516 30.3867 4.54688 31.3633 4.54688 32.3789V39H1.71094V18.9844ZM20.8125 18.9844H24.3047L28.0078 39H24.9375L24.3867 35.4141H20.7305L20.2031 39H17.1211L20.8125 18.9844ZM24.0352 33.1289L22.6289 23.1562H22.5L21.082 33.1289H24.0352ZM29.9531 18.9844H32.4141L37.2656 32.3789H37.3359C37.3125 32.0664 37.2812 31.7188 37.2422 31.3359C37.2031 30.9531 37.168 30.5195 37.1367 30.0352C37.1055 29.543 37.0781 28.9883 37.0547 28.3711C37.0312 27.7539 37.0195 27.0586 37.0195 26.2852V18.9844H39.7383V39H37.2539L32.4258 25.957H32.332C32.3555 26.3086 32.3867 26.6914 32.4258 27.1055C32.4648 27.5117 32.5 27.9922 32.5312 28.5469C32.5625 29.1016 32.5898 29.75 32.6133 30.4922C32.6367 31.2266 32.6484 32.1016 32.6484 33.1172V39H29.9531V18.9844ZM41.8945 18.9844H44.8008L46.1484 31.0781L46.3008 33.9023H46.5938L46.875 30.7266L49.0312 18.9844H51.457L53.5195 30.7266L53.7539 33.9023H54.0586L54.1992 31.0781L55.4297 18.9844H58.3477L55.5469 39H52.4648L50.8125 29.3789L50.2969 25.1953H50.0625L49.5586 29.3789L47.8242 39H44.7773L41.8945 18.9844ZM60.5156 18.9844H67.9336V21.375H63.5508V27.3633H66.9375V29.7539H63.5508V36.6094H68.0508V39H60.5156V18.9844ZM70.2422 18.9844H73.2773V36.6094H77.4141V39H70.2422V18.9844Z" fill="black"/>
<path d="M135.633 56.5067C134.408 57.4532 131.769 58.234 126.602 55.1688C122.002 52.4396 119.661 54.9952 118.5 57.676C117.339 54.9952 114.998 52.4396 110.398 55.1688C105.231 58.234 102.592 57.4532 101.367 56.5067C101.157 56.3441 100.914 56.647 101.03 56.9254C102.659 60.8263 107.616 70.6652 115.061 67.3164C115.061 67.3164 116.971 66.3847 118.5 63.953C120.029 66.3847 121.939 67.3164 121.939 67.3164C129.384 70.6652 134.341 60.8263 135.97 56.9254C136.086 56.647 135.843 56.3441 135.633 56.5067Z" fill="black" fill-opacity="0.81"/>
<path d="M140.025 54.0789L136.024 66.667L118.534 75.9457L101.044 66.667L97.5223 54H96L96.3708 66.3318C96.482 70.8251 98.6025 75.0185 102.124 77.7095L110.88 84.399C115.419 87.867 121.649 87.867 126.188 84.399L134.943 77.7095C138.465 75.0185 140.586 70.8251 140.697 66.3318L141 54.0789H140.025Z" fill="black" fill-opacity="0.81"/>
</svg>
