<svg width="21" height="21" viewBox="0 0 21 21" fill="none" xmlns="http://www.w3.org/2000/svg">
<path d="M14.0088 14.7879C13.886 15.3348 13.5624 15.4687 13.1048 15.2121L10.6048 13.3705L9.39942 14.5312C9.26549 14.6652 9.15389 14.7768 8.89719 14.7768L9.07576 12.2321L13.7075 8.04687C13.9084 7.8683 13.6628 7.76786 13.395 7.94643L7.66951 11.5513L5.20299 10.7812C4.66728 10.6138 4.65612 10.2455 5.3146 9.98884L14.9575 6.27232C15.4039 6.10491 15.7945 6.37277 15.6494 7.05357L14.0088 14.7879ZM20.7387 10.2009C20.7387 4.67634 16.2633 0.200891 10.7387 0.200891C5.21416 0.200891 0.738708 4.67634 0.738708 10.2009C0.738708 15.7254 5.21416 20.2009 10.7387 20.2009C16.2633 20.2009 20.7387 15.7254 20.7387 10.2009Z" fill="white"/>
</svg>
