<svg width="34" height="34" viewBox="0 0 34 34" fill="none" xmlns="http://www.w3.org/2000/svg">
<path d="M22.006 24.7829C21.8034 25.6853 21.2694 25.9062 20.5144 25.4827L16.3894 22.4442L14.4005 24.3594C14.1795 24.5804 13.9954 24.7645 13.5718 24.7645L13.8665 20.5658L21.5088 13.6602C21.8403 13.3655 21.4351 13.1998 20.9932 13.4944L11.5462 19.4425L7.47642 18.1719C6.59249 17.8956 6.57408 17.2879 7.66057 16.8644L23.5713 10.7321C24.3079 10.4559 24.9524 10.8979 24.713 12.0212L22.006 24.7829ZM33.1104 17.2143C33.1104 8.09877 25.7259 0.714283 16.6104 0.714283C7.49484 0.714283 0.110352 8.09877 0.110352 17.2143C0.110352 26.3298 7.49484 33.7143 16.6104 33.7143C25.7259 33.7143 33.1104 26.3298 33.1104 17.2143Z" fill="#BFBFBF"/>
</svg>
