<svg width="34" height="34" viewBox="0 0 34 34" fill="none" xmlns="http://www.w3.org/2000/svg">
<path d="M22.0539 24.7829C21.8513 25.6853 21.3172 25.9062 20.5622 25.4827L16.4372 22.4442L14.4484 24.3594C14.2274 24.5804 14.0432 24.7645 13.6197 24.7645L13.9143 20.5658L21.5566 13.6602C21.8881 13.3655 21.483 13.1998 21.041 13.4944L11.594 19.4425L7.52427 18.1719C6.64035 17.8956 6.62193 17.2879 7.70843 16.8644L23.6191 10.7321C24.3557 10.4559 25.0003 10.8979 24.7609 12.0212L22.0539 24.7829ZM33.1582 17.2143C33.1582 8.09877 25.7737 0.714283 16.6582 0.714283C7.54269 0.714283 0.158203 8.09877 0.158203 17.2143C0.158203 26.3298 7.54269 33.7143 16.6582 33.7143C25.7737 33.7143 33.1582 26.3298 33.1582 17.2143Z" fill="black"/>
</svg>
